<?xml version="1.0" encoding="UTF-8"?>
<!DOCTYPE svg PUBLIC "-//W3C//DTD SVG 1.1//EN" "http://www.w3.org/Graphics/SVG/1.1/DTD/svg11.dtd">
<!-- Creator: CorelDRAW X7 -->
<svg xmlns="http://www.w3.org/2000/svg" xml:space="preserve" width="0.427354in" height="0.459398in" version="1.1" style="shape-rendering:geometricPrecision; text-rendering:geometricPrecision; image-rendering:optimizeQuality; fill-rule:evenodd; clip-rule:evenodd"
viewBox="0 0 111 120"
 xmlns:xlink="http://www.w3.org/1999/xlink">
 <defs>
  <style type="text/css">
   <![CDATA[
    .fil0 {fill:#FEFEFE}
    .fil1 {fill:#727376;fill-rule:nonzero}
   ]]>
  </style>
     <clipPath id="id0">
      <path d="M0 0l111 0 0 120 -111 0 0 -120z"/>
     </clipPath>
 </defs>
 <g id="Layer_x0020_1">
  <metadata id="CorelCorpID_0Corel-Layer"/>
  <g id="_2138855819056">
   <g>
    <g style="clip-path:url(#id0)">
     <image x="0" y="0" width="111" height="120" xlink:href="down_btn_Images\down_btn_ImgID1.png"/>
    </g>
   </g>
   <path class="fil0" d="M56 8c27,0 48,22 48,48 0,27 -21,49 -48,49 -27,0 -49,-22 -49,-49 0,-26 22,-48 49,-48z"/>
   <g>
    <path class="fil1" d="M78 42c2,-2 5,-3 7,-1 3,2 3,5 1,7l-8 -6zm-24 36l24 -36 8 6 -23 36 -9 0 0 -6zm9 6c-2,2 -5,3 -8,1 -2,-2 -3,-5 -1,-7l9 6zm-30 -42l29 35 -8 7 -29 -35 8 -7zm-8 7c-2,-2 -1,-6 1,-8 2,-2 5,-1 7,1l-8 7z"/>
   </g>
  </g>
 </g>
</svg>
